<svg width="64" height="64" fill="none" xmlns="http://www.w3.org/2000/svg"><rect width="64" height="64" rx="14" fill="#41A4DF"/><path d="M39.322 45.488H24.637c-.305 0-.606-.04-.894-.113a3.679 3.679 0 0 1-2.329-1.788l-10.24-18.54A1.381 1.381 0 0 1 12.381 23h13.196a2.24 2.24 0 0 1 1.961 1.156l3.962 7.174 7.758 14.045.063.113z" fill="#A7E5FA"/><path d="M51.826 25.048l-10.239 18.54a3.679 3.679 0 0 1-2.328 1.787c-.288.074-.59.113-.894.113H24.637c-.304 0-.606-.04-.894-.113L31.5 31.33l3.962-7.174A2.236 2.236 0 0 1 37.42 23h13.196a1.38 1.38 0 0 1 1.209 2.048z" fill="#F6F7F9"/></svg>