<svg width="500" height="501" viewBox="0 0 500 501" fill="none" xmlns="http://www.w3.org/2000/svg">
<rect width="500" height="500" transform="translate(0 0.5)" fill="black"/>
<path fill-rule="evenodd" clip-rule="evenodd" d="M228.575 67.1667L276.354 67.1862L276.35 76.71L228.571 76.6905L228.575 67.1667ZM304.54 76.7331L200.004 76.6905L200 86.1945L171.431 86.1828L171.427 95.7066L248.599 95.7381H152.381V105.262L142.857 105.262V114.786L133.333 114.786V124.31L123.81 124.31V133.833H133.333L133.333 124.31H152.381V114.786L190.476 114.786V105.262H228.571V114.786L257.143 114.786V124.31L276.19 124.31V133.833L295.238 133.833V143.357H371.429V133.833L361.905 133.833V124.31V114.786L352.381 114.786V105.262L342.857 105.262V95.7381H323.855L323.859 86.245L304.536 86.2371L304.54 76.7331ZM371.429 114.786H380.952V124.31H371.429V114.786ZM380.952 124.31L390.476 124.31V133.833L400 133.833V143.357H380.952V133.833V124.31ZM219.048 124.31H171.429V133.833H142.857V143.357L123.809 143.357V152.881H104.762V162.405H95.2381V171.929H85.7143V181.452H76.1904V190.976V200.5V210.024L66.6666 210.024V229.071V238.595H57.1428V248.119V257.643V267.167V276.69V286.214V295.738L66.6666 295.738V324.31H76.1904V343.357L85.7143 343.357V362.405H95.2381V371.929H104.762V381.452H114.286V390.976H123.809V400.5L133.333 400.5V410.024H152.381V419.548H161.905V410.024H152.381V400.5L142.857 400.5V390.976H133.333V381.452H123.809L123.809 371.929V362.405H114.286V343.357L104.762 343.357V324.31V295.738V286.214V276.69V267.167L114.286 267.167V257.643V248.119V238.595H123.809V229.071H133.333V210.024L142.857 210.024V200.5H152.381V190.976H161.905V181.452H180.952V171.929H200V162.405H266.667V171.929H285.714L285.714 181.452H295.238V171.929H285.714V162.405H276.19V152.881H257.143V143.357L247.619 143.357V133.833H219.048V124.31ZM333.333 314.786V305.262H352.381V295.738L361.905 295.738V276.69H342.857V295.738L333.333 295.738V305.262H323.81V314.786H333.333ZM200 324.31H209.524V333.833H200V324.31ZM228.571 333.833L209.524 333.833V343.357H219.048V352.881H228.571V362.405H238.095V371.929H257.143V381.452H352.381V371.929H371.429V362.405H390.476V352.881H400V343.357H409.524V333.833H314.286V343.357H228.571V333.833ZM342.857 324.31V314.786H361.905V305.262H371.429V295.738V286.214H380.952V276.69L390.476 276.69V248.119H400V190.976H438.095V248.119V276.69V286.214V295.738H428.571V305.262V314.786H419.048V324.31V333.833H333.333V324.31H342.857ZM409.524 152.881L419.048 152.881V162.405L428.571 162.405V190.976L400 190.976V162.405L390.476 162.405V152.881V143.357H409.524V152.881ZM352.381 267.167V276.69H371.429V267.167V257.643L380.952 257.643V238.595H352.381V257.643V267.167ZM390.476 229.071V238.595L352.381 238.595V229.071V219.548L342.857 219.548V190.976L333.333 190.976V181.452V171.929H390.476V181.452V190.976V219.548V229.071ZM323.81 171.929V162.405L314.286 162.405V152.881L304.762 152.881V143.357L371.429 143.357L371.429 152.881L380.952 152.881L380.952 162.405V171.929H323.81ZM171.429 190.976H180.952V200.5H171.429V190.976ZM161.905 200.5H171.429L171.429 210.024L171.429 219.548H161.905V238.595L161.905 267.167V286.214V295.738H171.429V305.262V314.786H180.952V333.833H133.333V314.786H123.81V305.262V295.738V286.214V267.167L133.333 267.167V238.595L142.857 238.595V219.548H152.381V210.024H161.905V200.5ZM133.333 343.357V333.833L190.476 333.833V343.357H200V352.881H209.524V362.405H219.048V371.929H228.571V381.452H247.619V390.976H276.19V400.5H333.333V390.976H361.905V381.452H380.952V390.976H371.429V400.5H361.905V410.024H342.857V419.548H314.286V429.071H219.048V419.548H197.143V410.024H180.952V400.5H171.429V390.976H161.905V381.452H152.381V371.929H142.857V362.405V352.881H133.333V343.357ZM380.952 381.452V371.929H390.476V381.452H380.952Z" fill="#FACE5A"/>
</svg>
