<svg width="100%" height="100%" viewBox="0 0 172 22" fill="none" xmlns="http://www.w3.org/2000/svg" class="hidden sm:block w-[172px]"><g clip-path="url(#logo_svg__clip0_9023_103397)"><circle cx="4.17898" cy="6.6658" r="4.17898" fill="currentColor"></circle><circle cx="14.9995" cy="6.6658" r="4.17898" fill="currentColor"></circle><circle cx="15.0135" cy="17.0238" r="4.17898" fill="currentColor"></circle><circle cx="25.8211" cy="6.66583" r="4.17898" fill="currentColor"></circle></g><path d="M166.183 20.33C162.993 20.33 161.101 18.834 160.947 16.282H163.455C163.543 17.536 164.621 18.196 166.051 18.196C167.371 18.196 168.075 17.69 168.075 16.788C168.075 15.886 167.327 15.71 166.315 15.38L164.775 14.874C162.839 14.236 161.167 13.576 161.167 11.42C161.167 9.35201 162.751 7.98801 165.545 7.98801C168.251 7.98801 170.099 9.41801 170.407 12.058H167.943C167.811 10.738 166.865 10.122 165.523 10.122C164.379 10.122 163.719 10.606 163.719 11.398C163.719 12.3 164.731 12.542 165.567 12.828L166.975 13.29C169.285 14.06 170.671 14.764 170.671 16.854C170.671 19.01 169.043 20.33 166.183 20.33Z" fill="currentColor"></path><path d="M156.112 20H153.516V8.34001H155.606L155.914 10.628C156.662 9.04401 158.026 8.20801 159.962 8.20801H160.402V10.738H159.962C157.542 10.738 156.112 12.036 156.112 14.236V20Z" fill="currentColor"></path><path d="M146.584 20.33C143.02 20.33 140.578 17.778 140.578 14.214C140.578 10.364 143.108 7.98801 146.364 7.98801C149.664 7.98801 151.864 10.298 151.93 14.082V14.698H143.174C143.35 16.744 144.626 18.13 146.606 18.13C147.948 18.13 148.96 17.47 149.356 16.304H151.886C151.292 18.812 149.334 20.33 146.584 20.33ZM143.284 12.872H149.246C148.916 11.2 147.882 10.188 146.364 10.188C144.824 10.188 143.68 11.2 143.284 12.872Z" fill="currentColor"></path><path d="M132.615 20.33C129.469 20.33 127.203 17.778 127.203 14.104C127.203 10.496 129.425 7.988 132.527 7.988C134.177 7.988 135.541 8.67 136.355 9.77V3.5H138.951V20H136.861L136.619 17.932C135.959 19.406 134.507 20.33 132.615 20.33ZM133.099 18.13C135.013 18.13 136.355 16.458 136.355 14.082C136.355 11.772 135.035 10.166 133.143 10.166C131.207 10.166 129.865 11.794 129.865 14.126C129.865 16.48 131.185 18.13 133.099 18.13Z" fill="currentColor"></path><path d="M125.571 20H122.975V3.5H125.571V20Z" fill="currentColor"></path><path d="M119.427 6.778C118.481 6.778 117.755 6.03 117.755 5.084C117.755 4.138 118.481 3.412 119.427 3.412C120.395 3.412 121.099 4.138 121.099 5.084C121.099 6.03 120.395 6.778 119.427 6.778ZM120.725 20H118.129V8.34H120.725V20Z" fill="currentColor"></path><path d="M109.944 20.33C107.172 20.33 105.566 18.592 105.566 16.062V8.34H108.162V15.952C108.162 17.272 109.086 18.042 110.472 18.042C112.254 18.042 113.31 16.876 113.332 15.38V8.34H115.928V20H113.838L113.64 18.306C112.958 19.56 111.572 20.33 109.944 20.33Z" fill="currentColor"></path><path d="M99.0593 20H91.6233V4.60001H98.9273C101.721 4.60001 103.679 6.18401 103.679 8.49401C103.679 10.254 102.403 11.618 100.511 12.08C102.645 12.41 104.009 13.862 104.009 15.82C104.009 18.284 101.985 20 99.0593 20ZM94.2413 6.95401V11.024H98.8393C100.159 11.024 101.061 10.144 101.061 8.91201C101.061 7.76801 100.225 6.95401 99.0373 6.95401H94.2413ZM94.2413 13.312V17.624H99.1913C100.511 17.624 101.325 16.678 101.325 15.446C101.325 14.192 100.357 13.312 98.9493 13.312H94.2413Z" fill="currentColor"></path><path d="M74.0025 20H71.3625V4.60001H74.2225L81.8565 16.194V4.60001H84.4965V20H81.6365L74.0025 8.40601V20Z" fill="currentColor"></path><path d="M61.5891 20.33C57.0351 20.33 53.9111 17.162 53.9111 12.256C53.9111 7.592 56.8591 4.27 61.5891 4.27C66.1651 4.27 69.3111 7.416 69.3111 12.256C69.3111 16.964 66.3411 20.33 61.5891 20.33ZM61.5891 17.932C64.6691 17.932 66.6271 15.732 66.6271 12.256C66.6271 8.824 64.6691 6.646 61.5891 6.646C58.5311 6.646 56.5951 8.824 56.5951 12.256C56.5951 15.732 58.5311 17.932 61.5891 17.932Z" fill="currentColor"></path><path d="M48.4259 20H45.7859V6.97601H40.6379V4.60001H53.5519V6.97601H48.4259V20Z" fill="currentColor"></path><defs><clipPath id="logo_svg__clip0_9023_103397"><rect width="30" height="21" fill="white" transform="translate(0 1)"></rect></clipPath></defs></svg>