<svg width="64" height="64" viewBox="0 0 64 64" fill="none" xmlns="http://www.w3.org/2000/svg">
<rect width="64" height="64" rx="14" fill="black"/>
<g clip-path="url(#clip0_15472_24841)">
<path d="M18.4829 20.4213L19.5864 21.8376L32.6971 23.3404L45.6018 21.8376L46.8661 20.4178C46.8661 20.4178 46.8608 20.4152 46.8582 20.4134L38.4275 17.0384C38.3638 17.0131 38.2957 17 38.2268 17H27.1612C27.0931 17 27.025 17.0131 26.9614 17.0384L18.5696 20.3767C18.5386 20.389 18.5103 20.4038 18.4829 20.4213Z" fill="#86C5FF"/>
<path d="M39.4555 31.4719L50.3778 27.3931C50.369 27.3581 50.3584 27.3232 50.3416 27.29L45.6014 21.8376L39.4546 31.4728L39.4555 31.4719Z" fill="#95C7FF"/>
<path d="M50.378 27.3957C50.3692 27.3599 50.3577 27.3241 50.3418 27.2901L47.1401 20.6754C47.0827 20.5567 46.9819 20.4632 46.859 20.4135L45.6025 21.8377L50.3789 27.3957H50.378Z" fill="#4381FD"/>
<path d="M45.6015 21.8376L32.6968 23.3396L39.4555 31.4719L45.6015 21.8376Z" fill="#4D99F3"/>
<path d="M25.9389 31.4719L15.0156 27.3931C15.0245 27.3581 15.0351 27.3232 15.0519 27.29L19.586 21.8376L25.9389 31.4728V31.4719Z" fill="#9FB9FF"/>
<path d="M15.0156 27.3956C15.0245 27.3598 15.036 27.324 15.0519 27.29L18.2535 20.6744C18.311 20.5557 18.4118 20.4622 18.5347 20.4125L19.5851 21.8367L15.0156 27.3956Z" fill="#7498F8"/>
<path d="M19.5859 21.8376L32.6966 23.3396L25.9388 31.4719L19.5859 21.8376Z" fill="#D3E0FF"/>
<path d="M39.4555 31.4718L32.6968 23.3395L25.939 31.4718H39.4555Z" fill="#8BC0FF"/>
<path d="M50.2752 27.8498L34.8408 46.7122L39.4554 31.4728L50.3786 27.3957H50.3795C50.4175 27.5529 50.3813 27.7214 50.2752 27.8498Z" fill="#2A92F2"/>
<path d="M15.1195 27.8498L30.5998 46.7314L25.9393 31.4728L15.016 27.3957H15.0152C14.9771 27.5529 15.0134 27.7214 15.1195 27.8498Z" fill="#4795F1"/>
<path d="M39.4555 31.4728L34.8409 46.7122L33.1292 48.8044C32.9152 49.0655 32.512 49.0655 32.298 48.8044L30.6004 46.7323L25.939 31.4728H39.4555Z" fill="#ADD3FF"/>
<path d="M29.8206 28.7274C29.8206 28.7274 29.4148 29.2129 28.9293 30.1289C28.4439 31.0449 28.3979 32.0666 28.7808 33.0175L29.3591 34.6409C29.4033 34.75 29.3325 34.8749 29.1663 34.7518L27.817 33.669C26.8294 32.9276 25.8683 32.8106 24.7869 33.3703C23.7056 33.9301 23.214 34.3055 23.214 34.3055C23.1317 34.3396 23.061 34.2383 23.1017 34.1728L23.9204 32.6307C24.1061 32.3033 24.5464 31.0074 24.2158 29.77C23.9717 28.8601 23.7188 28.1493 23.7188 28.1493C23.6799 28.0542 23.7728 27.9948 23.8426 28.0568L25.2237 29.1885C26.1035 29.729 26.6128 30.0372 27.7366 29.5692C28.8604 29.1012 29.695 28.5781 29.695 28.5781C29.8339 28.5257 29.8825 28.6541 29.8206 28.7257V28.7274Z" fill="white"/>
</g>
<defs>
<clipPath id="clip0_15472_24841">
<rect width="35.3939" height="32" fill="white" transform="translate(15 17)"/>
</clipPath>
</defs>
</svg>